<?xml version="1.0"?>
<svg xmlns="http://www.w3.org/2000/svg" xmlns:xlink="http://www.w3.org/1999/xlink" viewBox="0 0 64 64" width="512" height="512"><defs><linearGradient id="New_Gradient_Swatch_10" x1="2" y1="34" x2="65.071" y2="34" gradientUnits="userSpaceOnUse"><stop offset="0" stop-color="#58a4ea"/><stop offset="1" stop-color="#474bdb"/></linearGradient><linearGradient id="New_Gradient_Swatch_10-2" y1="11" x2="65.071" y2="11" xlink:href="#New_Gradient_Swatch_10"/><linearGradient id="New_Gradient_Swatch_10-3" y1="10.979" x2="65.071" y2="10.979" xlink:href="#New_Gradient_Swatch_10"/></defs><g id="Gradient_outline" data-name="Gradient outline"><path d="M47.847,60,40.986,18.835A1,1,0,0,0,40,18H33V13.858a4,4,0,1,0-2,0V18H24a1,1,0,0,0-.986.835L16.153,60H12v2H52V60ZM30,10a2,2,0,1,1,2,2A2,2,0,0,1,30,10ZM19.681,51H44.319l.333,2h-25.3Zm.333-2,.333-2H43.653l.333,2ZM21.68,39H42.32l.333,2H21.347Zm1.734-2L32,28.414,40.586,37Zm-2.4,6H42.986l.056.333L43.319,45H20.681l.277-1.667ZM41.7,35.287,33.414,27l5.919-5.919Zm-9.7-9.7L26.414,20H37.586Zm-7.333-4.5L30.586,27,22.3,35.287ZM18.181,60l.833-5H44.986l.833,5Z" style="fill:url(#New_Gradient_Swatch_10)"/><path d="M22.293,16.707l1.414-1.414c-4.146-4.147-.435-8.146,0-8.588L23,6l-.707-.707C20.319,7.267,17.778,12.193,22.293,16.707Z" style="fill:url(#New_Gradient_Swatch_10-2)"/><path d="M20.484,18.293C18.1,15.908,16.929,13.4,17,10.843c.119-4.095,3.4-7.065,3.437-7.094L19.777,3l-.661-.75a12.972,12.972,0,0,0-4.111,8.514c-.1,3.138,1.269,6.147,4.065,8.943Z" style="fill:url(#New_Gradient_Swatch_10-3)"/><path d="M41.93,16.707c4.514-4.514,1.973-9.44,0-11.414L40.516,6.707c.174.175,4.244,4.342,0,8.586Z" style="fill:url(#New_Gradient_Swatch_10-2)"/><path d="M47.774,10.843c.075,2.559-1.1,5.065-3.481,7.45l1.414,1.414c2.8-2.8,4.164-5.805,4.065-8.943A12.972,12.972,0,0,0,45.661,2.25l-1.324,1.5C44.37,3.778,47.655,6.748,47.774,10.843Z" style="fill:url(#New_Gradient_Swatch_10-3)"/></g></svg>
