<?xml version="1.0"?>
<svg xmlns="http://www.w3.org/2000/svg" xmlns:xlink="http://www.w3.org/1999/xlink" viewBox="0 0 64 64" width="512" height="512"><defs><linearGradient id="New_Gradient_Swatch_10" x1="-1" y1="32" x2="63.498" y2="32" gradientUnits="userSpaceOnUse"><stop offset="0" stop-color="#58a4ea"/><stop offset="1" stop-color="#474bdb"/></linearGradient><linearGradient id="New_Gradient_Swatch_10-2" y1="9" x2="63.498" y2="9" xlink:href="#New_Gradient_Swatch_10"/><linearGradient id="New_Gradient_Swatch_10-5" y1="22" x2="63.498" y2="22" xlink:href="#New_Gradient_Swatch_10"/><linearGradient id="New_Gradient_Swatch_10-6" y1="27" x2="63.498" y2="27" gradientTransform="translate(32.858 -25.326) rotate(45)" xlink:href="#New_Gradient_Swatch_10"/><linearGradient id="New_Gradient_Swatch_10-7" y1="23" x2="63.498" y2="23" xlink:href="#New_Gradient_Swatch_10"/><linearGradient id="New_Gradient_Swatch_10-8" y1="31" x2="63.498" y2="31" xlink:href="#New_Gradient_Swatch_10"/><linearGradient id="New_Gradient_Swatch_10-10" y1="27" x2="63.498" y2="27" xlink:href="#New_Gradient_Swatch_10"/><linearGradient id="New_Gradient_Swatch_10-11" y1="48" x2="63.498" y2="48" xlink:href="#New_Gradient_Swatch_10"/><linearGradient id="New_Gradient_Swatch_10-14" y1="35" x2="63.498" y2="35" xlink:href="#New_Gradient_Swatch_10"/><linearGradient id="New_Gradient_Swatch_10-19" y1="46" x2="63.498" y2="46" xlink:href="#New_Gradient_Swatch_10"/><linearGradient id="New_Gradient_Swatch_10-20" y1="50" x2="63.498" y2="50" xlink:href="#New_Gradient_Swatch_10"/></defs><g id="Gradient_outline" data-name="Gradient outline"><path d="M2,60H62V4H2Zm58-2H4V14H60ZM4,6H60v6H4Z" style="fill:url(#New_Gradient_Swatch_10)"/><rect x="6" y="8" width="2" height="2" style="fill:url(#New_Gradient_Swatch_10-2)"/><rect x="10" y="8" width="2" height="2" style="fill:url(#New_Gradient_Swatch_10-2)"/><rect x="56" y="8" width="2" height="2" style="fill:url(#New_Gradient_Swatch_10-2)"/><path d="M7,28H26a1,1,0,0,0,1-1V24h6a1,1,0,0,0,.65-1.759l-7-6A.994.994,0,0,0,26,16H7a1,1,0,0,0-1,1V27A1,1,0,0,0,7,28ZM8,18H25.63L30.3,22H26a1,1,0,0,0-1,1v3H8Z" style="fill:url(#New_Gradient_Swatch_10-5)"/><rect x="38.515" y="26" width="16.971" height="2" transform="translate(-5.326 41.142) rotate(-45)" style="fill:url(#New_Gradient_Swatch_10-6)"/><path d="M43,26a3,3,0,1,0-3-3A3,3,0,0,0,43,26Zm0-4a1,1,0,1,1-1,1A1,1,0,0,1,43,22Z" style="fill:url(#New_Gradient_Swatch_10-7)"/><path d="M51,28a3,3,0,1,0,3,3A3,3,0,0,0,51,28Zm0,4a1,1,0,1,1,1-1A1,1,0,0,1,51,32Z" style="fill:url(#New_Gradient_Swatch_10-8)"/><rect x="48" y="8" width="6" height="2" style="fill:url(#New_Gradient_Swatch_10-2)"/><path d="M37,38H57a1,1,0,0,0,1-1V17a1,1,0,0,0-1-1H37a1,1,0,0,0-1,1V37A1,1,0,0,0,37,38Zm1-20H56V36H38Z" style="fill:url(#New_Gradient_Swatch_10-10)"/><path d="M7,56H57a1,1,0,0,0,1-1V41a1,1,0,0,0-1-1H7a1,1,0,0,0-1,1V55A1,1,0,0,0,7,56Zm49-2H37.516l5.143-12H56ZM40.483,42,35.341,54H23.517l5.142-12ZM8,42H26.484L21.341,54H8Z" style="fill:url(#New_Gradient_Swatch_10-11)"/><rect x="6" y="30" width="14" height="2" style="fill:url(#New_Gradient_Swatch_10-8)"/><rect x="22" y="30" width="2" height="2" style="fill:url(#New_Gradient_Swatch_10-8)"/><rect x="6" y="34" width="6" height="2" style="fill:url(#New_Gradient_Swatch_10-14)"/><rect x="14" y="34" width="2" height="2" style="fill:url(#New_Gradient_Swatch_10-14)"/><rect x="18" y="34" width="10" height="2" style="fill:url(#New_Gradient_Swatch_10-14)"/><path d="M16,44a4,4,0,1,0,4,4A4,4,0,0,0,16,44Zm0,6a2,2,0,1,1,2-2A2,2,0,0,1,16,50Z" style="fill:url(#New_Gradient_Swatch_10-11)"/><path d="M49,52a4,4,0,1,0-4-4A4,4,0,0,0,49,52Zm0-6a2,2,0,1,1-2,2A2,2,0,0,1,49,46Z" style="fill:url(#New_Gradient_Swatch_10-11)"/><rect x="29" y="45" width="7" height="2" style="fill:url(#New_Gradient_Swatch_10-19)"/><rect x="28" y="49" width="2" height="2" style="fill:url(#New_Gradient_Swatch_10-20)"/><rect x="33" y="49" width="2" height="2" style="fill:url(#New_Gradient_Swatch_10-20)"/></g></svg>
