<?xml version="1.0"?>
<svg xmlns="http://www.w3.org/2000/svg" xmlns:xlink="http://www.w3.org/1999/xlink" viewBox="0 0 64 64" width="512" height="512"><defs><linearGradient id="New_Gradient_Swatch_10" x1="-1" y1="14.5" x2="65.008" y2="14.5" gradientUnits="userSpaceOnUse"><stop offset="0" stop-color="#58a4ea"/><stop offset="1" stop-color="#474bdb"/></linearGradient><linearGradient id="New_Gradient_Swatch_10-2" y1="13" x2="65.008" y2="13" xlink:href="#New_Gradient_Swatch_10"/><linearGradient id="New_Gradient_Swatch_10-4" y1="14" x2="65.008" y2="14" xlink:href="#New_Gradient_Swatch_10"/><linearGradient id="New_Gradient_Swatch_10-5" y1="41" x2="65.008" y2="41" xlink:href="#New_Gradient_Swatch_10"/><linearGradient id="New_Gradient_Swatch_10-7" y1="46" x2="65.008" y2="46" xlink:href="#New_Gradient_Swatch_10"/><linearGradient id="New_Gradient_Swatch_10-8" y1="32" x2="65.008" y2="32" xlink:href="#New_Gradient_Swatch_10"/><linearGradient id="New_Gradient_Swatch_10-9" y1="14" x2="65.008" y2="14" xlink:href="#New_Gradient_Swatch_10"/><linearGradient id="New_Gradient_Swatch_10-10" y1="33.5" x2="65.008" y2="33.5" xlink:href="#New_Gradient_Swatch_10"/><linearGradient id="New_Gradient_Swatch_10-11" y1="23" x2="65.008" y2="23" xlink:href="#New_Gradient_Swatch_10"/><linearGradient id="New_Gradient_Swatch_10-12" y1="41.5" x2="65.008" y2="41.5" xlink:href="#New_Gradient_Swatch_10"/><linearGradient id="New_Gradient_Swatch_10-13" y1="36.5" x2="65.008" y2="36.5" xlink:href="#New_Gradient_Swatch_10"/><linearGradient id="New_Gradient_Swatch_10-14" y1="24.999" x2="65.008" y2="24.999" xlink:href="#New_Gradient_Swatch_10"/><linearGradient id="New_Gradient_Swatch_10-15" y1="43.5" x2="65.008" y2="43.5" xlink:href="#New_Gradient_Swatch_10"/><linearGradient id="New_Gradient_Swatch_10-16" y1="42" x2="65.008" y2="42" xlink:href="#New_Gradient_Swatch_10"/><linearGradient id="New_Gradient_Swatch_10-17" y1="24" x2="65.008" y2="24" xlink:href="#New_Gradient_Swatch_10"/><linearGradient id="New_Gradient_Swatch_10-18" y1="47" x2="65.008" y2="47" xlink:href="#New_Gradient_Swatch_10"/><linearGradient id="New_Gradient_Swatch_10-20" y1="27.5" x2="65.008" y2="27.5" xlink:href="#New_Gradient_Swatch_10"/><linearGradient id="New_Gradient_Swatch_10-21" y1="25" x2="65.008" y2="25" xlink:href="#New_Gradient_Swatch_10"/></defs><g id="Gradient_outline" data-name="Gradient outline"><path d="M9,18h6.723l4.762,2.857A1,1,0,0,0,22,20V9a1,1,0,0,0-1-1H9A1,1,0,0,0,8,9v8A1,1,0,0,0,9,18Zm1-8H20v8.234l-3.485-2.091A1,1,0,0,0,16,16H10Z" style="fill:url(#New_Gradient_Swatch_10)"/><rect x="12" y="12" width="2" height="2" style="fill:url(#New_Gradient_Swatch_10-2)"/><rect x="16" y="12" width="2" height="2" style="fill:url(#New_Gradient_Swatch_10-2)"/><path d="M46.474,17.851a1,1,0,0,0,.973.044l6-3a1,1,0,0,0,0-1.79l-6-3A1,1,0,0,0,46,11v6A1,1,0,0,0,46.474,17.851ZM48,12.618,50.764,14,48,15.382Z" style="fill:url(#New_Gradient_Swatch_10-4)"/><rect x="28" y="40" width="2" height="2" style="fill:url(#New_Gradient_Swatch_10-5)"/><rect x="34" y="40" width="2" height="2" style="fill:url(#New_Gradient_Swatch_10-5)"/><path d="M28.168,44.445a1,1,0,0,0,.277,1.387l3,2a1,1,0,0,0,1.11,0l3-2a1,1,0,1,0-1.11-1.664L32,45.8l-2.445-1.63A1,1,0,0,0,28.168,44.445Z" style="fill:url(#New_Gradient_Swatch_10-7)"/><path d="M61,2H3A1,1,0,0,0,2,3V61a1,1,0,0,0,1,1H61a1,1,0,0,0,1-1V3A1,1,0,0,0,61,2ZM26,60V52h2.083c.273,1.754,1.294,4,3.917,4s3.644-2.246,3.917-4H38v8ZM24,32v2H18V30h2v2Zm16,4h2V50H40Zm0-2V32h4V30h2v4Zm0,18h2v3a1,1,0,0,1-1,1H40Zm-2-2H26V38H38Zm-4.117,2c-.184.874-.658,2-1.883,2s-1.7-1.126-1.883-2ZM24,36V50H22V36ZM22,52h2v4H23a1,1,0,0,1-1-1Zm38,8H40V58h1a3,3,0,0,0,3-3V36h4V28H42v2H38v6H26V30H22V28H16v8h4V55a3,3,0,0,0,3,3h1v2H4V4H60Z" style="fill:url(#New_Gradient_Swatch_10-8)"/><path d="M49,22a8,8,0,1,0-8-8A8.009,8.009,0,0,0,49,22ZM49,8a6,6,0,1,1-6,6A6.006,6.006,0,0,1,49,8Z" style="fill:url(#New_Gradient_Swatch_10-9)"/><path d="M7,39a1,1,0,0,0,1-1c0-4.521,1.715-7.148,5.243-8.03a1,1,0,0,0-.486-1.94C8.273,29.151,6,32.505,6,38A1,1,0,0,0,7,39Z" style="fill:url(#New_Gradient_Swatch_10-10)"/><path d="M15,26a1,1,0,0,0,0-2c-4.009,0-5.219,0-6.03-3.243a1,1,0,1,0-1.94.486C8.219,26,10.917,26,15,26Z" style="fill:url(#New_Gradient_Swatch_10-11)"/><path d="M13.8,37.6a1,1,0,0,0-1.6-1.2C11,38,9.672,42.191,13.219,46.625a1,1,0,0,0,1.562-1.25C11.349,41.085,13.693,37.748,13.8,37.6Z" style="fill:url(#New_Gradient_Swatch_10-12)"/><path d="M51.243,31.03a1,1,0,1,0-.486,1.94C54.285,33.852,56,36.479,56,41a1,1,0,0,0,2,0C58,35.505,55.727,32.151,51.243,31.03Z" style="fill:url(#New_Gradient_Swatch_10-13)"/><path d="M56.051,22.684C55.256,25.07,53.839,26,51,26a1,1,0,0,0,0,2c3.675,0,5.883-1.488,6.949-4.684a1,1,0,1,0-1.9-.632Z" style="fill:url(#New_Gradient_Swatch_10-14)"/><path d="M50.4,38.2a1,1,0,0,0-.2,1.4c.026.034,2.495,3.43-.981,7.775a1,1,0,0,0,1.562,1.25C54.328,44.191,53,40,51.8,38.4A1,1,0,0,0,50.4,38.2Z" style="fill:url(#New_Gradient_Swatch_10-15)"/><rect x="6" y="41" width="2" height="2" style="fill:url(#New_Gradient_Swatch_10-16)"/><rect x="22" y="23" width="2" height="2" style="fill:url(#New_Gradient_Swatch_10-17)"/><rect x="55" y="46" width="2" height="2" style="fill:url(#New_Gradient_Swatch_10-18)"/><rect x="39" y="22" width="2" height="2" style="fill:url(#New_Gradient_Swatch_10-11)"/><path d="M27.243,24.03a1,1,0,0,0-.486,1.94,2.97,2.97,0,0,1,2.272,3.792,1,1,0,0,0,.728,1.208A.976.976,0,0,0,30,31a1,1,0,0,0,.969-.757A4.939,4.939,0,0,0,27.243,24.03Z" style="fill:url(#New_Gradient_Swatch_10-20)"/><path d="M35.757,21.03A4.072,4.072,0,0,0,33,23.1c-1.109,2.168-.051,4.957.073,5.268A1,1,0,0,0,34,29a.986.986,0,0,0,.37-.072,1,1,0,0,0,.56-1.3,5.22,5.22,0,0,1-.149-3.621,2.085,2.085,0,0,1,1.463-1.04,1,1,0,0,0-.486-1.94Z" style="fill:url(#New_Gradient_Swatch_10-21)"/><path d="M38,9H26a1,1,0,0,0-1,1v8a1,1,0,0,0,1,1H38a1,1,0,0,0,1-1V10A1,1,0,0,0,38,9Zm-3.3,2L32,12.8,29.3,11ZM27,17V11.868l4.445,2.964a1,1,0,0,0,1.11,0L37,11.868V17Z" style="fill:url(#New_Gradient_Swatch_10-9)"/></g></svg>
