<?xml version="1.0"?>
<svg xmlns="http://www.w3.org/2000/svg" xmlns:xlink="http://www.w3.org/1999/xlink" viewBox="0 0 64 64" width="512" height="512"><defs><linearGradient id="New_Gradient_Swatch_10" x1="1" y1="32" x2="61.208" y2="32" gradientUnits="userSpaceOnUse"><stop offset="0" stop-color="#58a4ea"/><stop offset="1" stop-color="#474bdb"/></linearGradient><linearGradient id="New_Gradient_Swatch_10-2" y1="23" x2="61.208" y2="23" xlink:href="#New_Gradient_Swatch_10"/><linearGradient id="New_Gradient_Swatch_10-4" y1="15" x2="61.208" y2="15" xlink:href="#New_Gradient_Swatch_10"/><linearGradient id="New_Gradient_Swatch_10-5" y1="19" x2="61.208" y2="19" xlink:href="#New_Gradient_Swatch_10"/><linearGradient id="New_Gradient_Swatch_10-7" y1="31" x2="61.208" y2="31" xlink:href="#New_Gradient_Swatch_10"/><linearGradient id="New_Gradient_Swatch_10-10" y1="17" x2="61.208" y2="17" gradientTransform="translate(19.929 -14.113) rotate(45)" xlink:href="#New_Gradient_Swatch_10"/><linearGradient id="New_Gradient_Swatch_10-11" y1="13" x2="61.208" y2="13" xlink:href="#New_Gradient_Swatch_10"/><linearGradient id="New_Gradient_Swatch_10-12" y1="21" x2="61.208" y2="21" xlink:href="#New_Gradient_Swatch_10"/><linearGradient id="New_Gradient_Swatch_10-14" y1="17" x2="61.208" y2="17" xlink:href="#New_Gradient_Swatch_10"/></defs><g id="Gradient_outline" data-name="Gradient outline"><path d="M61,2H3A1,1,0,0,0,2,3V43a1,1,0,0,0,1,1H28V54H17a1,1,0,0,0-1,1v6a1,1,0,0,0,1,1H47a1,1,0,0,0,1-1V55a1,1,0,0,0-1-1H36V44H61a1,1,0,0,0,1-1V3A1,1,0,0,0,61,2ZM46,60H18V56H46ZM34,54H30V44h4ZM60,42H4V4H60Z" style="fill:url(#New_Gradient_Swatch_10)"/><path d="M7,40H57a1,1,0,0,0,1-1V7a1,1,0,0,0-1-1H7A1,1,0,0,0,6,7V39A1,1,0,0,0,7,40ZM8,8H56V38H8Z" style="fill:url(#New_Gradient_Swatch_10-2)"/><path d="M53,10H37a1,1,0,0,0-1,1V26H11a1,1,0,0,0-1,1v8a1,1,0,0,0,1,1H53a1,1,0,0,0,1-1V11A1,1,0,0,0,53,10ZM38,12H52V26H38ZM52,34H12V28H52Z" style="fill:url(#New_Gradient_Swatch_10-2)"/><rect x="42" y="14" width="6" height="2" style="fill:url(#New_Gradient_Swatch_10-4)"/><rect x="40" y="18" width="10" height="2" style="fill:url(#New_Gradient_Swatch_10-5)"/><rect x="40" y="22" width="10" height="2" style="fill:url(#New_Gradient_Swatch_10-2)"/><rect x="14" y="30" width="6" height="2" style="fill:url(#New_Gradient_Swatch_10-7)"/><rect x="22" y="30" width="2" height="2" style="fill:url(#New_Gradient_Swatch_10-7)"/><rect x="26" y="30" width="10" height="2" style="fill:url(#New_Gradient_Swatch_10-7)"/><rect x="18.515" y="16" width="16.971" height="2" transform="translate(-4.113 24.071) rotate(-45)" style="fill:url(#New_Gradient_Swatch_10-10)"/><path d="M23,16a3,3,0,1,0-3-3A3,3,0,0,0,23,16Zm0-4a1,1,0,1,1-1,1A1,1,0,0,1,23,12Z" style="fill:url(#New_Gradient_Swatch_10-11)"/><path d="M31,18a3,3,0,1,0,3,3A3,3,0,0,0,31,18Zm0,4a1,1,0,1,1,1-1A1,1,0,0,1,31,22Z" style="fill:url(#New_Gradient_Swatch_10-12)"/><rect x="10" y="12" width="8" height="2" style="fill:url(#New_Gradient_Swatch_10-11)"/><rect x="12" y="16" width="6" height="2" style="fill:url(#New_Gradient_Swatch_10-14)"/><rect x="14" y="20" width="4" height="2" style="fill:url(#New_Gradient_Swatch_10-12)"/></g></svg>
