<?xml version="1.0"?>
<svg xmlns="http://www.w3.org/2000/svg" xmlns:xlink="http://www.w3.org/1999/xlink" viewBox="0 0 64 64" width="512" height="512"><defs><linearGradient id="New_Gradient_Swatch_10" x1="-1" y1="32" x2="65.008" y2="32" gradientUnits="userSpaceOnUse"><stop offset="0" stop-color="#58a4ea"/><stop offset="1" stop-color="#474bdb"/></linearGradient><linearGradient id="New_Gradient_Swatch_10-2" y1="7" x2="65.008" y2="7" xlink:href="#New_Gradient_Swatch_10"/><linearGradient id="New_Gradient_Swatch_10-5" y1="29" x2="65.008" y2="29" xlink:href="#New_Gradient_Swatch_10"/><linearGradient id="New_Gradient_Swatch_10-7" y1="48" x2="65.008" y2="48" xlink:href="#New_Gradient_Swatch_10"/><linearGradient id="New_Gradient_Swatch_10-9" y1="54" x2="65.008" y2="54" xlink:href="#New_Gradient_Swatch_10"/><linearGradient id="New_Gradient_Swatch_10-14" y1="15" x2="65.008" y2="15" xlink:href="#New_Gradient_Swatch_10"/><linearGradient id="New_Gradient_Swatch_10-15" y1="19" x2="65.008" y2="19" xlink:href="#New_Gradient_Swatch_10"/><linearGradient id="New_Gradient_Swatch_10-16" y1="39" x2="65.008" y2="39" xlink:href="#New_Gradient_Swatch_10"/><linearGradient id="New_Gradient_Swatch_10-17" y1="35" x2="65.008" y2="35" xlink:href="#New_Gradient_Swatch_10"/></defs><g id="Gradient_outline" data-name="Gradient outline"><path d="M2,62H62V2H2ZM4,12h6V40H4ZM60,60H4V42h8V12H52V44h8Zm0-18H54V12h6ZM4,4H60v6H4Z" style="fill:url(#New_Gradient_Swatch_10)"/><rect x="6" y="6" width="4" height="2" style="fill:url(#New_Gradient_Swatch_10-2)"/><rect x="12" y="6" width="4" height="2" style="fill:url(#New_Gradient_Swatch_10-2)"/><rect x="18" y="6" width="4" height="2" style="fill:url(#New_Gradient_Swatch_10-2)"/><path d="M25,36H39V22H25Zm8.414-7L37,25.414v7.172Zm2.172,5H28.414L32,30.414ZM32,27.586,28.414,24h7.172ZM30.586,29,27,32.586V25.414Z" style="fill:url(#New_Gradient_Swatch_10-5)"/><path d="M41,16H23V14H17v6h2V38H17v6h6V42H41v2h6V38H45V20h2V14H41ZM19,16h2v2H19Zm2,26H19V40h2Zm24,0H43V40h2Zm-2-4H41v2H23V38H21V20h2V18H41v2h2Zm0-22h2v2H43Z" style="fill:url(#New_Gradient_Swatch_10-5)"/><rect x="18" y="47" width="2" height="2" style="fill:url(#New_Gradient_Swatch_10-7)"/><rect x="44" y="47" width="2" height="2" style="fill:url(#New_Gradient_Swatch_10-7)"/><rect x="18" y="53" width="2" height="2" style="fill:url(#New_Gradient_Swatch_10-9)"/><rect x="44" y="53" width="2" height="2" style="fill:url(#New_Gradient_Swatch_10-9)"/><rect x="48" y="47" width="4" height="2" style="fill:url(#New_Gradient_Swatch_10-7)"/><polygon points="39 45 37 45 37 47 22 47 22 49 37 49 37 51 39 51 39 49 42 49 42 47 39 47 39 45" style="fill:url(#New_Gradient_Swatch_10-7)"/><polygon points="34 51 32 51 32 53 22 53 22 55 32 55 32 57 34 57 34 55 42 55 42 53 34 53 34 51" style="fill:url(#New_Gradient_Swatch_10-9)"/><rect x="6" y="14" width="2" height="2" style="fill:url(#New_Gradient_Swatch_10-14)"/><rect x="6" y="18" width="2" height="2" style="fill:url(#New_Gradient_Swatch_10-15)"/><rect x="56" y="38" width="2" height="2" style="fill:url(#New_Gradient_Swatch_10-16)"/><rect x="56" y="34" width="2" height="2" style="fill:url(#New_Gradient_Swatch_10-17)"/></g></svg>
