<?xml version="1.0"?>
<svg xmlns="http://www.w3.org/2000/svg" xmlns:xlink="http://www.w3.org/1999/xlink" viewBox="0 0 64 64" width="512" height="512"><defs><linearGradient id="New_Gradient_Swatch_10" x1="1" y1="32" x2="61.208" y2="32" gradientUnits="userSpaceOnUse"><stop offset="0" stop-color="#58a4ea"/><stop offset="1" stop-color="#474bdb"/></linearGradient><linearGradient id="New_Gradient_Swatch_10-3" y1="15.522" x2="61.208" y2="15.522" xlink:href="#New_Gradient_Swatch_10"/></defs><g id="Gradient_outline" data-name="Gradient outline"><path d="M59,27H56V3a1,1,0,0,0-1-1H9A1,1,0,0,0,8,3V27H5a1,1,0,0,0-1,1V61a1,1,0,0,0,1,1H59a1,1,0,0,0,1-1V28A1,1,0,0,0,59,27ZM45.141,37,43,38.582V37ZM46,29V27H43V25H41v2H38v6h6v2H38v2h3v2h1.435L36.1,43.684l-3.391-3.391a1,1,0,0,0-1.414,0L27.9,43.684,21.565,39H23V37h3V31H20V29h6V27H23V25H21v2H18v6h6v2H18v1.365l-8-5.913V22.414L28.414,4h7.172L54,22.414v8.038l-8,5.913V31H40V29ZM18.859,37H21v1.582ZM10,16.414,22.414,4h3.172L10,19.586Zm44,3.172L38.414,4h3.172L54,16.414Zm0-6L44.414,4H54ZM19.586,4,10,13.586V4ZM6,29.983,26.472,45.114,11.586,60H6ZM14.414,60,32,42.414,49.586,60Zm38,0L37.528,45.114,58,29.983V60Z" style="fill:url(#New_Gradient_Swatch_10)"/><polygon points="33 25 31 25 31 27 28 27 28 33 34 33 34 35 28 35 28 37 31 37 31 39 33 39 33 37 36 37 36 31 30 31 30 29 36 29 36 27 33 27 33 25" style="fill:url(#New_Gradient_Swatch_10)"/><path d="M39.2,13.02l-4.52-.9L32.9,8.553a1.042,1.042,0,0,0-1.79,0l-1.781,3.562-4.52.9a1,1,0,0,0-.4,1.78l3.387,2.54-1.716,4.288a1,1,0,0,0,1.444,1.229L32,20.166l4.485,2.691a1,1,0,0,0,1.444-1.229L36.213,17.34,39.6,14.8a1,1,0,0,0-.4-1.78ZM34.4,16.2a1,1,0,0,0-.329,1.172l.9,2.243-2.454-1.472a1,1,0,0,0-1.03,0l-2.454,1.472.9-2.243A1,1,0,0,0,29.6,16.2l-2.21-1.658L30.2,13.98a1,1,0,0,0,.7-.533L32,11.236l1.1,2.211a1,1,0,0,0,.7.533l2.806.562Z" style="fill:url(#New_Gradient_Swatch_10-3)"/></g></svg>
