<svg xmlns="http://www.w3.org/2000/svg" height="511pt" version="1.1" viewBox="0 1 511 511.99999" width="511pt">
<g id="surface1">
<path d="M 214.78125 83.4375 L 214.78125 165.066406 C 288.042969 165.066406 347.433594 224.457031 347.433594 297.71875 C 347.433594 370.980469 288.042969 430.371094 214.78125 430.371094 L 214.78125 512 C 333.125 512 429.0625 416.0625 429.0625 297.71875 C 429.0625 179.375 333.125 83.4375 214.78125 83.4375 Z M 214.78125 83.4375 " style=" stroke:none;fill-rule:nonzero;fill:rgb(94.509804%,94.901961%,94.901961%);fill-opacity:1;" />
<path d="M 82.128906 297.71875 C 82.128906 224.457031 141.519531 165.066406 214.78125 165.066406 L 214.78125 83.4375 C 96.4375 83.4375 0.5 179.375 0.5 297.71875 C 0.5 416.0625 96.4375 512 214.78125 512 L 214.78125 430.371094 C 141.519531 430.367188 82.128906 370.980469 82.128906 297.71875 Z M 82.128906 297.71875 " style=" stroke:none;fill-rule:nonzero;fill:rgb(90.196078%,90.588235%,90.980392%);fill-opacity:1;" />
<path d="M 82.128906 297.71875 C 82.128906 370.980469 141.519531 430.371094 214.78125 430.371094 L 214.78125 348.738281 C 186.605469 348.738281 163.761719 325.898438 163.761719 297.71875 C 163.761719 269.542969 186.605469 246.699219 214.78125 246.699219 L 214.78125 165.070312 C 141.519531 165.066406 82.128906 224.457031 82.128906 297.71875 Z M 82.128906 297.71875 " style=" stroke:none;fill-rule:nonzero;fill:rgb(81.960784%,82.745098%,83.137255%);fill-opacity:1;" />
<path d="M 265.800781 297.71875 C 265.800781 325.894531 242.957031 348.738281 214.78125 348.738281 L 214.78125 430.367188 C 288.042969 430.367188 347.433594 370.980469 347.433594 297.71875 C 347.433594 224.457031 288.042969 165.066406 214.78125 165.066406 L 214.78125 246.699219 C 242.957031 246.699219 265.800781 269.542969 265.800781 297.71875 Z M 265.800781 297.71875 " style=" stroke:none;fill-rule:nonzero;fill:rgb(90.196078%,90.588235%,90.980392%);fill-opacity:1;" />
<path d="M 265.800781 297.71875 C 265.800781 269.542969 242.957031 246.699219 214.78125 246.699219 L 214.78125 348.738281 C 242.957031 348.738281 265.800781 325.894531 265.800781 297.71875 Z M 265.800781 297.71875 " style=" stroke:none;fill-rule:nonzero;fill:rgb(81.960784%,82.745098%,83.137255%);fill-opacity:1;" />
<path d="M 163.761719 297.71875 C 163.761719 325.894531 186.605469 348.738281 214.78125 348.738281 L 214.78125 246.699219 C 186.605469 246.699219 163.761719 269.542969 163.761719 297.71875 Z M 163.761719 297.71875 " style=" stroke:none;fill-rule:nonzero;fill:rgb(65.490196%,66.27451%,67.45098%);fill-opacity:1;" />
<path d="M 214.78125 307.921875 C 209.144531 307.921875 204.578125 303.351562 204.578125 297.714844 C 204.582031 295.011719 205.65625 292.417969 207.566406 290.503906 L 391.238281 106.835938 C 395.289062 102.917969 401.75 103.03125 405.664062 107.085938 C 409.484375 111.039062 409.484375 117.308594 405.664062 121.261719 L 221.996094 304.933594 C 220.082031 306.847656 217.488281 307.921875 214.78125 307.921875 Z M 214.78125 307.921875 " style=" stroke:none;fill-rule:nonzero;fill:rgb(50.196078%,50.980392%,52.156863%);fill-opacity:1;" />
<path d="M 449.207031 0 L 388.246094 61.5 L 388.246094 124.253906 L 449.46875 63.027344 Z M 449.207031 0 " style=" stroke:none;fill-rule:nonzero;fill:rgb(100%,81.960784%,58.431373%);fill-opacity:1;" />
<path d="M 449.46875 63.027344 L 388.246094 124.253906 L 449.808594 124.253906 L 510.765625 62.765625 Z M 449.46875 63.027344 " style=" stroke:none;fill-rule:nonzero;fill:rgb(100%,77.647059%,48.235294%);fill-opacity:1;" />
</g>
</svg>