<?xml version="1.0"?>
<svg xmlns="http://www.w3.org/2000/svg" xmlns:xlink="http://www.w3.org/1999/xlink" viewBox="0 0 64 64" width="512" height="512"><defs><linearGradient id="New_Gradient_Swatch_10" x1="1" y1="32" x2="61.208" y2="32" gradientUnits="userSpaceOnUse"><stop offset="0" stop-color="#58a4ea"/><stop offset="1" stop-color="#474bdb"/></linearGradient><linearGradient id="New_Gradient_Swatch_10-2" y1="20" x2="61.208" y2="20" xlink:href="#New_Gradient_Swatch_10"/><linearGradient id="New_Gradient_Swatch_10-4" y1="13" x2="61.208" y2="13" gradientTransform="translate(15.05 -10.335) rotate(45)" xlink:href="#New_Gradient_Swatch_10"/><linearGradient id="New_Gradient_Swatch_10-5" y1="13" x2="61.208" y2="13" gradientTransform="translate(22.08 -27.305) rotate(45)" xlink:href="#New_Gradient_Swatch_10"/><linearGradient id="New_Gradient_Swatch_10-6" y1="27" x2="61.208" y2="27" gradientTransform="translate(31.979 -23.205) rotate(45)" xlink:href="#New_Gradient_Swatch_10"/><linearGradient id="New_Gradient_Swatch_10-7" y1="27" x2="61.208" y2="27" gradientTransform="translate(24.95 -6.234) rotate(45)" xlink:href="#New_Gradient_Swatch_10"/><linearGradient id="New_Gradient_Swatch_10-8" y1="24" x2="61.208" y2="24" xlink:href="#New_Gradient_Swatch_10"/><linearGradient id="New_Gradient_Swatch_10-9" y1="34" x2="61.208" y2="34" xlink:href="#New_Gradient_Swatch_10"/><linearGradient id="New_Gradient_Swatch_10-10" y1="37" x2="61.208" y2="37" xlink:href="#New_Gradient_Swatch_10"/><linearGradient id="New_Gradient_Swatch_10-11" y1="12.5" x2="61.208" y2="12.5" xlink:href="#New_Gradient_Swatch_10"/><linearGradient id="New_Gradient_Swatch_10-12" y1="18" x2="61.208" y2="18" xlink:href="#New_Gradient_Swatch_10"/></defs><g id="Gradient_outline" data-name="Gradient outline"><path d="M2,8H4V40H2v6H29V56H19a1,1,0,0,0-1,1v4a1,1,0,0,0,1,1H45a1,1,0,0,0,1-1V57a1,1,0,0,0-1-1H35V46H62V40H60V8h2V2H2ZM44,58v2H20V58ZM33,56H31V46h2ZM60,44H4V42H60Zm-2-4H6V8H58ZM4,4H60V6H4Z" style="fill:url(#New_Gradient_Swatch_10)"/><rect x="16" y="19" width="4" height="2" style="fill:url(#New_Gradient_Swatch_10-2)"/><rect x="44" y="19" width="4" height="2" style="fill:url(#New_Gradient_Swatch_10-2)"/><rect x="19" y="11.586" width="2" height="2.828" transform="translate(-3.335 17.95) rotate(-45)" style="fill:url(#New_Gradient_Swatch_10-4)"/><rect x="42.586" y="12" width="2.828" height="2" transform="translate(3.695 34.92) rotate(-45)" style="fill:url(#New_Gradient_Swatch_10-5)"/><rect x="43" y="25.586" width="2" height="2.828" transform="translate(-6.205 39.021) rotate(-45)" style="fill:url(#New_Gradient_Swatch_10-6)"/><rect x="18.586" y="26" width="2.828" height="2" transform="translate(-13.234 22.05) rotate(-45)" style="fill:url(#New_Gradient_Swatch_10-7)"/><path d="M12,17.858V34H27v4H37V34H53V29.858a4,4,0,1,0-2,0V32H37V28.651a10,10,0,1,0-10,0V32H14V17.858a4,4,0,1,0-2,0ZM50,26a2,2,0,1,1,2,2A2,2,0,0,1,50,26ZM35,36H29V34h6ZM34,21V19H30v2h1v2.858a4,4,0,1,1,2,0V21ZM24,20a8,8,0,1,1,11.555,7.158L35,27.434V32H33V25.91a6,6,0,1,0-2,0V32H29V27.434l-.555-.276A7.957,7.957,0,0,1,24,20ZM13,12a2,2,0,1,1-2,2A2,2,0,0,1,13,12Z" style="fill:url(#New_Gradient_Swatch_10-8)"/><polygon points="16 36 10 36 10 30 8 30 8 38 16 38 16 36" style="fill:url(#New_Gradient_Swatch_10-9)"/><rect x="18" y="36" width="2" height="2" style="fill:url(#New_Gradient_Swatch_10-10)"/><polygon points="54 15 56 15 56 10 51 10 51 12 54 12 54 15" style="fill:url(#New_Gradient_Swatch_10-11)"/><rect x="54" y="17" width="2" height="2" style="fill:url(#New_Gradient_Swatch_10-12)"/></g></svg>
