<?xml version="1.0"?>
<svg xmlns="http://www.w3.org/2000/svg" xmlns:xlink="http://www.w3.org/1999/xlink" viewBox="0 0 64 64" width="512" height="512"><defs><linearGradient id="New_Gradient_Swatch_10" x1="-1" y1="32" x2="65.008" y2="32" gradientUnits="userSpaceOnUse"><stop offset="0" stop-color="#58a4ea"/><stop offset="1" stop-color="#474bdb"/></linearGradient><linearGradient id="New_Gradient_Swatch_10-2" y1="43" x2="65.008" y2="43" xlink:href="#New_Gradient_Swatch_10"/><linearGradient id="New_Gradient_Swatch_10-4" y1="39" x2="65.008" y2="39" gradientTransform="translate(12.961 -1.793) rotate(18.453)" xlink:href="#New_Gradient_Swatch_10"/><linearGradient id="New_Gradient_Swatch_10-5" y1="25" x2="65.008" y2="25" gradientTransform="translate(31.922 5.71) rotate(71.565)" xlink:href="#New_Gradient_Swatch_10"/><linearGradient id="New_Gradient_Swatch_10-7" y1="39" x2="65.008" y2="39" gradientTransform="translate(72.536 -22.671) rotate(71.547)" xlink:href="#New_Gradient_Swatch_10"/><linearGradient id="New_Gradient_Swatch_10-8" y1="25" x2="65.008" y2="25" gradientTransform="translate(10.587 -15.174) rotate(18.453)" xlink:href="#New_Gradient_Swatch_10"/></defs><g id="Gradient_outline" data-name="Gradient outline"><path d="M21.481,12,19,18.824V62H45V18.824L42.519,12H35.9l4-8.577A1,1,0,0,0,39,2H25a1,1,0,0,0-.906,1.423L28.1,12Zm19.637,2L43,19.176V60H21V19.176L22.882,14H25v5a7,7,0,0,0,14,0V14ZM26.57,4H37.43L33.7,12H30.3Zm4.579,14.507a.981.981,0,0,0,1.7,0A.974.974,0,0,1,33,19a1,1,0,0,1-2,0A.974.974,0,0,1,31.149,18.507ZM31.237,14h1.526L32,15.636ZM29.03,14l1.206,2.585a3,3,0,1,0,3.528,0L34.97,14H37v5a5,5,0,0,1-10,0V14Z" style="fill:url(#New_Gradient_Swatch_10)"/><path d="M35,32V29a1,1,0,0,0-1-1H30a1,1,0,0,0-1,1v3H27a3,3,0,0,0-3,3v8a3,3,0,0,0,3,3h7v2H25a1,1,0,0,0-1,1v4a1,1,0,0,0,1,1h4v3a1,1,0,0,0,1,1h4a1,1,0,0,0,1-1V54h2a3,3,0,0,0,3-3V43a3,3,0,0,0-3-3H30V38h9a1,1,0,0,0,1-1V33a1,1,0,0,0-1-1Zm-4-2h2v2H31Zm2,26H31V54h2Zm5-20H29a1,1,0,0,0-1,1v4a1,1,0,0,0,1,1h8a1,1,0,0,1,1,1v8a1,1,0,0,1-1,1H26V50h9a1,1,0,0,0,1-1V45a1,1,0,0,0-1-1H27a1,1,0,0,1-1-1V35a1,1,0,0,1,1-1H38Z" style="fill:url(#New_Gradient_Swatch_10-2)"/><rect x="7" y="31" width="8" height="2" style="fill:url(#New_Gradient_Swatch_10)"/><rect x="8.838" y="38" width="6.325" height="1.999" transform="translate(-11.727 5.803) rotate(-18.453)" style="fill:url(#New_Gradient_Swatch_10-4)"/><rect x="11" y="21.838" width="1.999" height="6.325" transform="translate(-15.512 28.479) rotate(-71.565)" style="fill:url(#New_Gradient_Swatch_10-5)"/><rect x="49" y="31" width="8" height="2" style="fill:url(#New_Gradient_Swatch_10)"/><rect x="51" y="35.838" width="1.999" height="6.325" transform="translate(-1.454 75.982) rotate(-71.547)" style="fill:url(#New_Gradient_Swatch_10-7)"/><rect x="48.838" y="24" width="6.325" height="1.999" transform="translate(-5.239 17.744) rotate(-18.453)" style="fill:url(#New_Gradient_Swatch_10-8)"/></g></svg>
