<?xml version="1.0"?>
<svg xmlns="http://www.w3.org/2000/svg" xmlns:xlink="http://www.w3.org/1999/xlink" viewBox="0 0 64 64" width="512" height="512"><defs><linearGradient id="New_Gradient_Swatch_10" x1="1" y1="41" x2="62.522" y2="41" gradientUnits="userSpaceOnUse"><stop offset="0" stop-color="#58a4ea"/><stop offset="1" stop-color="#474bdb"/></linearGradient><linearGradient id="New_Gradient_Swatch_10-2" y1="31" x2="62.522" y2="31" xlink:href="#New_Gradient_Swatch_10"/><linearGradient id="New_Gradient_Swatch_10-4" y1="32" x2="62.522" y2="32" xlink:href="#New_Gradient_Swatch_10"/><linearGradient id="New_Gradient_Swatch_10-5" y1="36" x2="62.522" y2="36" xlink:href="#New_Gradient_Swatch_10"/><linearGradient id="New_Gradient_Swatch_10-7" y1="10.5" x2="62.522" y2="10.5" xlink:href="#New_Gradient_Swatch_10"/><linearGradient id="New_Gradient_Swatch_10-9" y1="53.5" x2="62.522" y2="53.5" xlink:href="#New_Gradient_Swatch_10"/><linearGradient id="New_Gradient_Swatch_10-11" y1="47.5" x2="62.522" y2="47.5" xlink:href="#New_Gradient_Swatch_10"/><linearGradient id="New_Gradient_Swatch_10-12" y1="57" x2="62.522" y2="57" xlink:href="#New_Gradient_Swatch_10"/><linearGradient id="New_Gradient_Swatch_10-14" y1="16.5" x2="62.522" y2="16.5" xlink:href="#New_Gradient_Swatch_10"/><linearGradient id="New_Gradient_Swatch_10-18" y1="7" x2="62.522" y2="7" xlink:href="#New_Gradient_Swatch_10"/></defs><g id="Gradient_outline" data-name="Gradient outline"><rect x="26" y="40" width="12" height="2" style="fill:url(#New_Gradient_Swatch_10)"/><rect x="26" y="30" width="2" height="2" style="fill:url(#New_Gradient_Swatch_10-2)"/><rect x="36" y="30" width="2" height="2" style="fill:url(#New_Gradient_Swatch_10-2)"/><path d="M22,37.9V46H42V37.9a5,5,0,0,0,0-9.8V18H22V28.1a5,5,0,0,0,0,9.8ZM44,33a3.006,3.006,0,0,1-2,2.829V30.171A3.006,3.006,0,0,1,44,33ZM24,20H40v4H24Zm16,6V44H24V26ZM22,30.171v5.658a3,3,0,0,1,0-5.658Z" style="fill:url(#New_Gradient_Swatch_10-4)"/><rect x="31" y="34" width="2" height="4" style="fill:url(#New_Gradient_Swatch_10-5)"/><path d="M50,14H14V50H50ZM48,48H16V16H48Z" style="fill:url(#New_Gradient_Swatch_10-4)"/><polygon points="4 4 19 4 19 2 2 2 2 19 4 19 4 4" style="fill:url(#New_Gradient_Swatch_10-7)"/><polygon points="45 4 60 4 60 19 62 19 62 2 45 2 45 4" style="fill:url(#New_Gradient_Swatch_10-7)"/><polygon points="60 60 45 60 45 62 62 62 62 45 60 45 60 60" style="fill:url(#New_Gradient_Swatch_10-9)"/><polygon points="19 60 4 60 4 45 2 45 2 62 19 62 19 60" style="fill:url(#New_Gradient_Swatch_10-9)"/><path d="M6,37V58H27V52H12V37ZM25,54v2H8V39h2V54Z" style="fill:url(#New_Gradient_Swatch_10-11)"/><path d="M35,62V52H29V62Zm-4-8h2v6H31Z" style="fill:url(#New_Gradient_Swatch_10-12)"/><path d="M12,29H2v6H12Zm-2,4H4V31h6Z" style="fill:url(#New_Gradient_Swatch_10-4)"/><path d="M27,6H6V27h6V12H27Zm-2,4H10V25H8V8H25Z" style="fill:url(#New_Gradient_Swatch_10-14)"/><path d="M58,37H52V52H37v6H58ZM56,56H39V54H54V39h2Z" style="fill:url(#New_Gradient_Swatch_10-11)"/><path d="M52,35H62V29H52Zm2-4h6v2H54Z" style="fill:url(#New_Gradient_Swatch_10-4)"/><path d="M58,27V6H37v6H52V27ZM39,10V8H56V25H54V10Z" style="fill:url(#New_Gradient_Swatch_10-14)"/><path d="M29,2V12h6V2Zm4,8H31V4h2Z" style="fill:url(#New_Gradient_Swatch_10-18)"/></g></svg>
